# xmcd
#
# Track frame offsets:
#	150
#	19622
#	35765
#	50267
#	69627
#	89792
#	99717
#	121852
#	135070
#	149737
#	165805
#	185680
#	205350
#	218627
#	231557
#
# Disc length: 3234 seconds
#
# Revision: 1
# Processed by: cddbd v1.4PL0 Copyright (c) Steve Scherf et al.
# Submitted via: audiograbber 1.81.03
#
DISCID=da0ca00f
DTITLE=Knockout Greg and Blue Weather - The Wig-Flipper
DYEAR=2000
DGENRE=Blues
TTITLE0=Baby, Baby Blues
TTITLE1=I Cry
TTITLE2=Somebody's Been Crying
TTITLE3=You Got Me Way Down Here
TTITLE4=Letter On My Bed
TTITLE5=I'm Through
TTITLE6=You Can't Undo (What's Been Done)
TTITLE7=The Wig-Flipper
TTITLE8=Tears Of Joy
TTITLE9=Bad Luck Avenue
TTITLE10=Tough Times
TTITLE11=She's In Love With My Pocket Book
TTITLE12=Get Out Of The Car
TTITLE13=I Don't Know Why
TTITLE14=Horton's Hot Foot
EXTD=
EXTT0=
EXTT1=
EXTT2=
EXTT3=
EXTT4=
EXTT5=
EXTT6=
EXTT7=
EXTT8=
EXTT9=
EXTT10=
EXTT11=
EXTT12=
EXTT13=
EXTT14=
PLAYORDER=
